<svg width="1024" height="1024" viewBox="0 0 1024 1024" fill="none" xmlns="http://www.w3.org/2000/svg">
<rect width="1024" height="1024" rx="205" fill="#5194FF"/>
<path d="M471.58 418.411V677.97C471.58 699.764 489.814 717.42 512.339 717.42C534.864 717.42 553.135 699.764 553.135 677.97V418.411C553.135 396.619 534.864 378.961 512.339 378.961C489.814 378.961 471.58 396.619 471.58 418.411Z" fill="white"/>
<path d="M604.121 375.973V585.641C604.121 607.418 622.355 625.075 644.898 625.075C667.422 625.075 685.675 607.418 685.675 585.641V375.973C685.675 354.197 667.422 336.525 644.898 336.525C622.355 336.525 604.121 354.197 604.121 375.973Z" fill="white"/>
<path d="M338.997 346.017V594.574C338.997 616.368 357.272 634.024 379.791 634.024C402.312 634.024 420.594 616.368 420.594 594.574V346.017C420.594 324.239 402.312 306.581 379.791 306.581C357.272 306.581 338.997 324.239 338.997 346.017Z" fill="white"/>
<path d="M206.451 494.956V518.619C206.451 540.397 224.711 558.039 247.247 558.039C269.751 558.039 288.01 540.397 288.01 518.619V494.956C288.01 473.164 269.751 455.506 247.247 455.506C224.711 455.506 206.451 473.164 206.451 494.956Z" fill="white"/>
<path d="M735.625 498.774V518.619C735.625 540.397 753.896 558.038 776.421 558.038C798.945 558.038 817.217 540.397 817.217 518.619V498.774C817.217 476.982 798.945 459.324 776.421 459.324C753.896 459.324 735.625 476.982 735.625 498.774Z" fill="white"/>
</svg>
